<svg width="24" height="24" viewBox="0 0 24 24" fill="none" xmlns="http://www.w3.org/2000/svg">
<rect width="24" height="24" rx="5" fill="#80CA90"/>
<path d="M9.2911 5.31287C9.6911 5.03407 10.3093 4.71809 10.6547 4.60656C11.0002 4.49504 11.7456 4.40211 12.2911 4.40211C13.0366 4.38352 13.582 4.51363 14.382 4.90396C15.0002 5.20135 15.6729 5.7032 15.9638 6.07494C16.2366 6.4281 16.6184 7.07865 16.8184 7.54332C17.0366 8.04518 17.2002 8.77007 17.2002 9.34627C17.2002 9.8853 17.0911 10.7217 16.982 11.205C16.8366 11.7254 16.4547 12.3946 16.0184 12.8964C15.6184 13.3611 14.9275 13.9373 14.4729 14.1975C13.8547 14.5692 13.3093 14.6994 12.2911 14.7737C11.5457 14.8109 10.8729 14.7737 10.8002 14.6808C10.7275 14.5878 11.4002 13.6213 12.3093 12.5061C13.2002 11.4094 13.8729 10.4615 13.8184 10.3686C13.7638 10.2942 13.4002 10.2013 13.0366 10.1455C12.4911 10.0526 12.382 9.97823 12.4002 9.5879C12.4002 9.32769 12.4729 8.75149 12.6729 7.45039L12.0729 8.17529C11.7456 8.56561 11.1456 9.27192 10.7638 9.75519C10.382 10.2199 9.92747 10.7961 9.76383 11.0377C9.6002 11.2607 9.50929 11.5024 9.56383 11.5581C9.61838 11.5953 10.0366 11.7068 10.5275 11.7812C11.0002 11.8555 11.382 11.9671 11.382 12.0414C11.382 12.1343 11.0911 12.8035 10.7457 13.5284C10.382 14.2719 10.0184 14.9596 9.94565 15.0711C9.85474 15.1826 9.36383 16.0934 8.83656 17.1157C8.30929 18.138 7.78201 19.1417 7.65474 19.3461C7.41838 19.6993 7.41838 19.6993 7.30929 19.2532C7.25474 18.993 7.2002 16.5209 7.2002 13.77C7.2002 10.6102 7.27292 8.47268 7.4002 8.008C7.52747 7.59909 7.81838 6.92995 8.0911 6.53962C8.34565 6.14929 8.8911 5.59168 9.2911 5.31287Z" fill="white"/>
</svg>
