<svg width="10" height="16" viewBox="0 0 10 16" fill="none" xmlns="http://www.w3.org/2000/svg">
<path d="M2.09091 0.912484C2.49091 0.633677 3.10909 0.317697 3.45455 0.206174C3.8 0.0946517 4.54545 0.00171623 5.09091 0.00171623C5.83636 -0.0168709 6.38182 0.113239 7.18182 0.503568C7.8 0.800961 8.47273 1.30281 8.76364 1.67455C9.03636 2.02771 9.41818 2.67826 9.61818 3.14293C9.83636 3.64479 10 4.36968 10 4.94588C10 5.48491 9.89091 6.32133 9.78182 6.80459C9.63636 7.32503 9.25455 7.99416 8.81818 8.49602C8.41818 8.96069 7.72727 9.53689 7.27273 9.79711C6.65455 10.1689 6.10909 10.299 5.09091 10.3733C4.34545 10.4105 3.67273 10.3733 3.6 10.2804C3.52727 10.1874 4.2 9.22091 5.10909 8.10569C6 7.00905 6.67273 6.06111 6.61818 5.96817C6.56364 5.89382 6.2 5.80089 5.83636 5.74513C5.29091 5.65219 5.18182 5.57784 5.2 5.18751C5.2 4.92729 5.27273 4.35109 5.47273 3.05L4.87273 3.7749C4.54545 4.16522 3.94545 4.87153 3.56364 5.3548C3.18182 5.81947 2.72727 6.39567 2.56364 6.63731C2.4 6.86035 2.30909 7.10198 2.36364 7.15774C2.41818 7.19492 2.83636 7.30644 3.32727 7.38079C3.8 7.45514 4.18182 7.56666 4.18182 7.64101C4.18182 7.73395 3.89091 8.40308 3.54545 9.12798C3.18182 9.87146 2.81818 10.5592 2.74545 10.6707C2.65455 10.7822 2.16364 11.693 1.63636 12.7153C1.10909 13.7376 0.581818 14.7413 0.454545 14.9457C0.218182 15.2989 0.218182 15.2989 0.109091 14.8528C0.0545455 14.5926 0 12.1205 0 9.36961C0 6.2098 0.0727273 4.07229 0.2 3.60761C0.327273 3.1987 0.618182 2.52956 0.890909 2.13923C1.14545 1.7489 1.69091 1.19129 2.09091 0.912484Z" fill="#F9FAFB"/>
</svg>
